<svg xmlns="http://www.w3.org/2000/svg" viewBox="0 0 64 64" fill="none" aria-hidden="true">
  <circle cx="32" cy="32" r="30" stroke="#c9a227" stroke-width="1" opacity="0.45"/>
  <circle cx="32" cy="32" r="22" stroke="#c9a227" stroke-width="0.75" opacity="0.3"/>
  <path d="M32 14c2.8 6.2 8.5 10.5 15.2 11.8C40.5 28.2 36 34.4 34.2 41.2 32.8 34.2 28.2 28.4 21.5 25.8 27.8 24.2 32.2 19.8 32 14z" fill="#c9a227" opacity="0.85"/>
  <path d="M32 22c1.6 3.6 4.9 6.1 8.8 6.9-3.9 1.3-6.6 4.8-7.6 8.8-.8-4.1-3.5-7.5-7.4-9 3.8-1 6.9-3.5 6.2-6.7z" fill="#e2c45a" opacity="0.7"/>
  <path d="M18 46h28" stroke="#c9a227" stroke-width="1" opacity="0.5"/>
  <path d="M22 50h20" stroke="#c9a227" stroke-width="0.75" opacity="0.35"/>
</svg>
